<?xml version="1.0" encoding="utf-8"?>
<!-- Generator: Adobe Illustrator 28.2.0, SVG Export Plug-In . SVG Version: 6.00 Build 0)  -->
<!DOCTYPE svg PUBLIC "-//W3C//DTD SVG 1.1//EN" "http://www.w3.org/Graphics/SVG/1.1/DTD/svg11.dtd" [
	<!ENTITY ns_extend "http://ns.adobe.com/Extensibility/1.0/">
	<!ENTITY ns_ai "http://ns.adobe.com/AdobeIllustrator/10.0/">
	<!ENTITY ns_graphs "http://ns.adobe.com/Graphs/1.0/">
	<!ENTITY ns_vars "http://ns.adobe.com/Variables/1.0/">
	<!ENTITY ns_imrep "http://ns.adobe.com/ImageReplacement/1.0/">
	<!ENTITY ns_sfw "http://ns.adobe.com/SaveForWeb/1.0/">
	<!ENTITY ns_custom "http://ns.adobe.com/GenericCustomNamespace/1.0/">
	<!ENTITY ns_adobe_xpath "http://ns.adobe.com/XPath/1.0/">
]>
<svg version="1.1" id="Layer_1" xmlns:x="&ns_extend;" xmlns:i="&ns_ai;" xmlns:graph="&ns_graphs;"
	 xmlns="http://www.w3.org/2000/svg" xmlns:xlink="http://www.w3.org/1999/xlink" x="0px" y="0px" viewBox="0 0 800 800"
	 style="enable-background:new 0 0 800 800;" xml:space="preserve">
<style type="text/css">
	.st0{fill:#333333;}
</style>
<metadata>
	<sfw  xmlns="&ns_sfw;">
		<slices></slices>
		<sliceSourceBounds  bottomLeftOrigin="true" height="800" width="800" x="0" y="0"></sliceSourceBounds>
	</sfw>
</metadata>
<path class="st0" d="M800,0v800H539.8c-21.4,0-28.1-12-28.1-23c0-13.4,0.5-57.6,0.5-112.5c2.1-28.1-8.1-55.8-27.9-75.9
	c91.3-10.2,187.2-44.8,187.2-202.3c0.6-40.7-14.5-80.1-42.1-110c12.5-35.4,11-74.2-4.1-108.5c0,0-34.4-11-112.7,42
	c-67.2-18.4-138.1-18.4-205.3,0c-78.3-53.1-112.7-42-112.7-42c-15.1,34.3-16.5,73.1-4,108.5c-27.6,29.9-42.8,69.3-42.2,110
	c0,157.1,95.7,192.3,186.7,202.7c-14.9,14.6-24.2,34-26.1,54.8c-42,23.6-95.1,8.8-118.8-33.2c-0.2-0.3-0.3-0.6-0.5-0.9
	c-13.3-23-36.5-38.6-62.8-42.2c0,0-40.1-0.5-2.8,25c21.8,13.9,38,35.2,45.5,60c0,0,24.2,79.7,138.2,55c0.2,34.2,0.5,59.9,0.5,69.7
	c0,10.8-7.4,22.9-27.9,22.9H0V0H800z"/>
</svg>
