<?xml version="1.0" encoding="utf-8"?>
<!-- Generator: Adobe Illustrator 28.2.0, SVG Export Plug-In . SVG Version: 6.00 Build 0)  -->
<!DOCTYPE svg PUBLIC "-//W3C//DTD SVG 1.1//EN" "http://www.w3.org/Graphics/SVG/1.1/DTD/svg11.dtd" [
	<!ENTITY ns_extend "http://ns.adobe.com/Extensibility/1.0/">
	<!ENTITY ns_ai "http://ns.adobe.com/AdobeIllustrator/10.0/">
	<!ENTITY ns_graphs "http://ns.adobe.com/Graphs/1.0/">
	<!ENTITY ns_vars "http://ns.adobe.com/Variables/1.0/">
	<!ENTITY ns_imrep "http://ns.adobe.com/ImageReplacement/1.0/">
	<!ENTITY ns_sfw "http://ns.adobe.com/SaveForWeb/1.0/">
	<!ENTITY ns_custom "http://ns.adobe.com/GenericCustomNamespace/1.0/">
	<!ENTITY ns_adobe_xpath "http://ns.adobe.com/XPath/1.0/">
]>
<svg version="1.1" id="Layer_1" xmlns:x="&ns_extend;" xmlns:i="&ns_ai;" xmlns:graph="&ns_graphs;"
	 xmlns="http://www.w3.org/2000/svg" xmlns:xlink="http://www.w3.org/1999/xlink" x="0px" y="0px" viewBox="0 0 512 512"
	 style="enable-background:new 0 0 512 512;" xml:space="preserve">
<style type="text/css">
	.st0{fill:#333333;}
	.st1{fill:#FEFFFF;}
</style>
<metadata>
	<sfw  xmlns="&ns_sfw;">
		<slices></slices>
		<sliceSourceBounds  bottomLeftOrigin="true" height="512" width="512" x="0" y="0"></sliceSourceBounds>
	</sfw>
</metadata>
<path class="st0" d="M76.8,0h358.4C477.6,0,512,34.4,512,76.8v358.4c0,42.4-34.4,76.8-76.8,76.8H76.8C34.4,512,0,477.6,0,435.2V76.8
	C0,34.4,34.4,0,76.8,0z"/>
<g>
	<path class="st1" d="M271,383c-15-4-23-10-36-26c-9-12-26-39-35-53l-6-11h-24v34c1,43,0,42,19,45l10,1v4v4h-80v-4c0-4,1-4,9-6
		c10-2,14-5,15-14c1-4,1-31,1-79c0-70-1-72-3-77c-3-5-7-7-18-8c-4-1-5-1-5-5v-4l43-1c55-1,65,0,81,11c15,10,22,24,20,43
		c-1,21-17,42-37,50c-4,1-7,3-7,3c0,2,17,28,28,43c15,21,27,32,36,37c4,2,9,3,10,3c3,0,3,1,3,4s-1,5-2,5c-5,2-19,2-26,0L271,383z
		 M214,274c14-7,22-18,23-35c1-13-2-22-10-30c-9-10-25-14-48-12l-10,1v39c0,36,0,40,2,40c1,0,9,1,18,0c14,0,17-1,24-4L214,274z"/>
	<path class="st1" d="M321,228c-25-4-34-20-32-61c1-21,3-30,11-38c7-7,13-9,25-10c13-1,21,2,29,8c5,4,9,10,9,13c0,1-3,2-6,4l-6,3
		l-3-3c-5-6-9-9-14-11c-10-3-20,2-25,11c-3,5-3,6-3,29c0,22,0,25,3,29c4,7,12,11,21,10c13-1,20-10,20-24v-7h-10h-10v-13h36v15
		c0,12-1,16-3,22c-6,15-23,24-42,22V228z"/>
</g>
</svg>
